<svg width="21" height="9" viewBox="0 0 21 9" fill="none" xmlns="http://www.w3.org/2000/svg">
<path d="M6.88505 5.20034C6.48459 5.4681 5.99037 5.47568 5.56203 5.69292C5.2807 5.83438 4.47979 6.49116 4.51021 6.81702C4.52541 6.98374 4.87264 6.81955 4.97149 6.84986L4.7738 7.04689C4.90052 7.06963 5.24521 7.09489 5.30097 7.21361C5.3542 7.32476 4.89038 7.4839 4.85743 7.64052C4.3632 7.9108 4.47979 7.41822 4.43924 7.38033C4.40629 7.34497 3.91966 7.42327 3.79547 7.42833C3.65354 7.4359 3.52935 7.3576 3.36714 7.38791C2.95401 7.46874 2.11255 8.43117 1.68675 8.68125C1.57777 8.7444 1.32178 8.9187 1.27109 8.71914C1.2204 8.51958 1.80841 7.55716 1.99343 7.40559C2.25702 7.19088 3.07567 7.02163 3.11875 6.97869C3.1441 6.95595 3.16945 6.8347 3.03512 6.86249C2.19112 7.02921 2.70816 6.39769 3.28603 6.38254C3.45331 6.37749 3.66114 6.51137 3.71437 6.48863C4.02611 6.34717 4.4291 5.5742 4.68762 5.40243C5.05513 5.15993 6.1475 4.98058 6.58598 4.99826C6.74058 5.00584 6.90026 5.00331 6.88251 5.20034H6.88505ZM3.51667 7.2414H4.63946C4.65214 7.2414 4.62933 7.46116 4.63946 7.50411C4.77379 7.41317 4.75605 7.2995 4.96895 7.27424C4.87771 7.26666 4.37841 6.96858 4.37081 6.93574C4.24155 6.43559 5.04499 5.77881 5.45305 5.5843L6.58598 5.13214C6.0664 5.26097 5.3618 5.24076 4.88278 5.47821C4.58624 5.62472 4.03625 6.54168 3.77266 6.61494C3.52428 6.68314 3.0782 6.4179 2.91853 6.71345C3.20746 6.72861 3.7093 6.90543 3.51414 7.2414H3.51667ZM1.93007 7.76934C1.74758 8.03205 1.63353 8.32002 1.46878 8.59284C1.45358 8.63831 1.53215 8.64083 1.56763 8.62568C1.89712 8.47411 2.26462 7.90323 2.59158 7.70367C2.89318 7.55716 3.1365 7.14288 3.45078 7.17572C3.44064 7.09489 3.36714 7.04942 3.28857 7.04689C3.1441 7.04184 2.10241 7.48137 1.99089 7.60262C1.93767 7.66072 1.94781 7.74156 1.93007 7.76934Z" fill="#1D1D1B"/>
<path d="M11.3788 3.35631C11.5815 3.32347 12.2709 3.37652 12.0758 3.68975C12.0099 3.79332 11.5638 3.89184 11.4751 4.08129C11.3408 4.11918 11.4143 3.99541 11.2977 3.93225C10.9707 3.75796 10.4055 3.79332 10.2002 4.12676C10.0482 4.37431 9.74148 5.61714 9.2726 5.32664C9.12306 5.23317 9.22697 4.27075 9.29287 4.08129C9.35623 3.90447 9.73641 3.65186 9.92397 3.62407C8.97099 2.82079 10.332 3.10876 10.3903 3.07087C10.4486 3.03298 10.4816 2.80816 10.5551 2.70712C10.6412 2.58334 11.1076 2.05287 11.214 1.97961C11.3636 1.87604 12.5016 1.4062 12.6993 1.35062C12.8285 1.31526 13.0693 1.30515 13.0313 1.4845C13.0161 1.55523 12.1493 2.34842 12.0073 2.50503C11.9288 2.59344 11.3078 3.30074 11.3813 3.36136L11.3788 3.35631ZM12.57 1.64364C12.6663 1.66638 12.7069 1.61586 12.7677 1.54513C12.7018 1.51734 12.5066 1.61333 12.57 1.64364ZM11.247 3.48767C11.247 3.47251 11.1811 3.39926 11.1988 3.3361C11.2647 3.0936 11.8401 2.43935 12.0428 2.20443C12.091 2.14886 12.6004 1.73963 12.5041 1.64617C11.8629 1.83815 11.432 1.9493 10.9961 2.47977C10.8719 2.63133 10.5551 3.26285 10.517 3.29064C10.4486 3.34116 9.9189 3.00772 9.79471 3.26032C9.75162 3.45736 10.109 3.41189 10.2053 3.4422C10.5272 3.54324 10.4283 3.72259 10.4537 3.7529C10.4765 3.77816 10.9631 3.68975 11.1152 3.68723C11.1253 3.68723 11.1938 3.75543 11.3332 3.75038C11.465 3.74533 11.7362 3.68217 11.8426 3.58871L11.2495 3.49019L11.247 3.48767ZM9.72628 3.88426C9.59195 3.99541 9.54633 3.89184 9.46269 4.14697C9.45255 4.18233 9.47283 4.24043 9.46269 4.27832C9.40439 4.48546 9.34103 4.68249 9.32835 4.90226C9.32329 4.99067 9.27006 5.23823 9.42974 5.20034C9.68319 5.07656 9.65531 4.81385 9.73388 4.66229C9.79471 4.54861 9.89102 4.47283 9.96705 4.28843C10.033 4.12929 10.1039 3.92468 10.1242 3.7529C10.1622 3.74533 10.2129 3.75796 10.256 3.7529C10.2382 3.3942 9.88088 3.76048 9.72881 3.88426H9.72628Z" fill="#1D1D1B"/>
<path d="M20.8072 4.06109C20.6577 4.23034 20.171 4.37432 19.9328 4.6042C19.7554 4.77597 19.2459 5.51863 19.5197 5.71314C19.6464 5.80407 20.7084 5.81165 20.465 6.19056C20.2217 6.56947 19.6464 6.13246 19.3321 6.12741C19.137 6.12236 18.9697 6.25624 18.7441 6.25876C18.6022 6.25876 18.1257 6.1754 18.0471 6.07689C17.9914 6.00868 17.9457 5.76113 17.9077 5.7384C17.819 5.68535 17.5706 5.78639 17.4845 5.66767C17.1955 5.2635 18.2778 5.13972 18.5135 5.3999C18.6605 4.07878 19.8086 4.1293 20.792 3.75291C20.9263 3.83627 20.901 3.955 20.8047 4.06362L20.8072 4.06109ZM19.4411 4.93764C19.6692 4.58146 20.1457 4.17982 20.5639 4.0813C20.5791 3.96005 20.4296 4.02826 20.3637 4.04594C20.0925 4.11161 19.1826 4.43242 19.0153 4.61177C18.848 4.79112 18.6529 5.34433 18.6478 5.59694C18.3031 5.59946 17.9407 5.2054 17.6568 5.59694C18.3614 5.52621 18.0598 5.72577 18.1485 5.92532C18.2778 6.20824 19.18 5.97837 19.474 5.98848C19.7326 5.99858 19.9759 6.10973 20.2319 6.12236C20.1001 5.88996 19.4234 5.93796 19.3017 5.75103C19.142 5.50347 19.2992 5.15993 19.4386 4.93764H19.4411Z" fill="#1D1D1B"/>
<path d="M0.609591 2.1716C0.419502 2.22465 -0.267351 2.39137 0.112827 2.04025C0.23195 1.93163 1.631 1.24201 1.79575 1.2117C2.07454 1.15865 2.31279 1.34558 2.47753 1.30769C2.63467 1.2698 2.79435 0.936359 2.91854 0.822687C3.10863 0.645863 4.64201 -0.0386993 4.80169 0.0017176C5.24523 0.112864 4.39869 0.509456 4.36321 0.534716C3.92474 0.837843 3.46346 1.23949 3.31899 1.77754C3.41784 1.81543 3.80562 1.78259 3.84617 1.84574C3.98304 2.04783 3.64088 2.09077 3.60032 2.12613C3.55217 2.17413 3.54203 2.356 3.44825 2.43684L3.11876 2.37116C3.0554 2.29791 3.02245 2.32569 2.98697 2.30548C2.96416 2.29285 2.94135 2.24233 2.92107 2.23981C2.94642 2.20192 2.86024 2.12108 3.0478 2.07056C3.23535 2.02004 3.39756 2.10592 3.58005 2.04277C3.54456 1.88616 3.19733 2.0352 3.12383 1.96699C3.09088 1.93668 3.13143 1.79522 3.11876 1.78006C3.11116 1.73712 3.1289 1.68407 3.11876 1.64871C3.34433 1.24706 3.5547 0.956568 3.91207 0.661019C4.00078 0.638285 4.10469 0.655967 4.1858 0.575133L4.57104 0.201276C4.21114 0.34021 3.85631 0.481669 3.51415 0.661019C3.40263 0.721644 3.33166 0.709014 3.18213 0.825213C3.00978 0.956568 2.65241 1.49462 2.61186 1.50977C2.3508 1.59566 2.02385 1.2597 1.73238 1.32032L2.32546 1.74722L1.79828 2.0453C2.02385 2.3939 2.56624 2.18423 2.92107 2.24233C2.75379 2.49241 2.01372 2.41158 1.73238 2.30801C1.69183 2.23981 1.67916 2.15645 1.60059 2.11098C1.60566 2.10592 1.58031 2.02509 1.64367 1.9771C1.75773 1.89121 2.08468 1.89879 2.06441 1.74975C2.00865 1.338 1.21027 1.5805 0.982165 1.72449L0.280102 2.11098C0.566503 2.1615 1.78561 1.54514 1.93261 1.65123C1.93768 1.69165 1.89713 1.72954 1.86671 1.74975C1.74252 1.83058 0.817421 2.12108 0.609591 2.17665V2.1716Z" fill="#1D1D1B"/>
</svg>
